<?xml version="1.0" encoding="utf-8"?>
<!-- Generator: Adobe Illustrator 27.5.0, SVG Export Plug-In . SVG Version: 6.00 Build 0)  -->
<svg version="1.1" id="BACKGROUND" xmlns="http://www.w3.org/2000/svg" xmlns:xlink="http://www.w3.org/1999/xlink" x="0px" y="0px"
	 viewBox="0 0 750 500" style="enable-background:new 0 0 750 500;" xml:space="preserve">
<g>
	<defs>
		<rect id="SVGID_1_" width="750" height="500"/>
	</defs>
	<clipPath id="SVGID_00000008849039697727825870000017701462766971401614_">
		<use xlink:href="#SVGID_1_"  style="overflow:visible;"/>
	</clipPath>
	
		<rect style="clip-path:url(#SVGID_00000008849039697727825870000017701462766971401614_);fill:transparent;" width="750" height="500"/>
	<g style="clip-path:url(#SVGID_00000008849039697727825870000017701462766971401614_);">
	</g>
	<g style="clip-path:url(#SVGID_00000008849039697727825870000017701462766971401614_);">
		<g>
			<path style="fill:none;stroke:#F7941D;stroke-opacity:0.5;stroke-width:1.5;stroke-linecap:round;stroke-linejoin:round;stroke-miterlimit:10;" d="
				M467.52-6.486c-0.985,7.14-3.401,15.7-2.139,22.668c1.402,7.739,7.295,14.074,9.76,21.426
				c6.287,18.752-7.052,24.244-19.262,34.694c-10.293,8.809-22.841,23.284-27.133,36.444c-6.17,18.919-2.847,42.306-1.714,61.716
				c0.965,16.524,6.831,37.4,2.752,53.552c-3.263,12.919-25.144,22.953-22.699,35.73c2.751,14.376,21.662,12.825,16.944,32.584
				c-4.15,17.383-11.432,22.717,6.533,34.391c12.928,8.401,22.003,12.374,29.211,26.609c6.283,12.409,25.364,25.325,26.367,39.473
				c1.206,17.01-19.646,19.915-31.451,24.517c-18.132,7.07-32.362,14.918-47.837,26.44c-10.168,7.57-20.348,17.586-28.658,4.608
				c-9.668-15.1-17.307-28.531-32.632-39.376c-14.762-10.447-26.987-8.145-32.523,9.5c-4.091,13.039-7.835,28.607-25.605,23.042
				c-7.657-2.398-13.123-9.34-20.691-12.078c-8.259-2.988-14.859-1.549-23.198,0.461c-15.847,3.821-41.758,3.351-54.674,13.915
				c-6.773,5.539-10.618,13.901-17.884,19.346c-7.69,5.762-15.779,11.635-23.729,17.081c-11.115,7.614-35.958,9.929-36.455,26.232"
				/>
			<path style="fill:none;stroke:#F7941D;stroke-opacity:0.5;stroke-width:1.5;stroke-linecap:round;stroke-linejoin:round;stroke-miterlimit:10;" d="
				M-9.987,301.4c18.622,3.386,31.571,6.972,48.967-1.997c19.461-10.033,25.694-4.331,45.343,1.422
				c12.121,3.549,23.482,3.025,33.48,11.924c6.735,5.995,11.035,20.372,20.184,16.372c6.519-2.85,17.629-22.137,26.248-6.727
				c5.38,9.619-10.021,28.226-9.35,39.546c0.641,10.823,7.248,19.138,16.725,23.76c9.23,4.502,35.243,16.717,42.507,4.622
				c6.443-10.726-12.343-26.799-17.903-35.01c-7.529-11.119-16.471-23.339-21.712-35.695c-6.532-15.401-10.234-32.251-16.649-47.876
				c-4.66-11.349-8.313-28.341-17.828-36.646c-24.099-21.035-53.65,0.303-73.355,14.459c-13.66,9.814-21.733,2.441-34.142-5.226
				c-13.375-8.264-27.106-11.76-42.515-13.861"/>
			<path style="fill:none;stroke:#F7941D;stroke-opacity:0.5;stroke-width:1.5;stroke-linecap:round;stroke-linejoin:round;stroke-miterlimit:10;" d="
				M528.686-5.972c4.896,10.608,15.959,19.359,18.42,30.844c3.161,14.75-8.602,21.174-13.868,32.7
				c-4.924,10.779,1.404,22.421-2.718,33.32c-4.201,11.109-14.873,14.397-23.068,21.678c-11.974,10.637-6.504,18.32,5.835,23.763
				c13.803,6.089,23.405,13.071,35.059,22.451c12.829,10.326,20.704,16.048,37.372,14.034c15.253-1.844,26.017,0.927,38.987-8.485
				c4.895-3.552,10.802-7.563,15.032-11.956c3.824-3.972,6.859-14.56,11.161-17.055c13.971-8.101,9.815,14.078,10.18,19.504
				c0.79,11.747,8.467,26.172,12.655,37.053c4.743,12.322,11.533,21.837,20.403,31.463c22.779,24.719,0.828,43.578,2.629,71.293
				c2.058,31.677,40.764,35.479,63.221,45.831"/>
			<path style="fill:none;stroke:#F7941D;stroke-opacity:0.5;stroke-width:1.5;stroke-linecap:round;stroke-linejoin:round;stroke-miterlimit:10;" d="
				M759.73,389.294c-3.792-11.515-9.078-22.652-19.144-29.991c-10.148-7.398-22.432-7.891-33.812-12.055
				c-23.999-8.781-31.519-29.839-32.594-53.56c-1.301-28.683-0.169-49.151-17.735-73.224c-5.222-7.156-12.049-15.12-21.972-12.907
				c-10.372,2.314-14.029,11.247-10.943,19.997c5.638,15.983,9.006,20.678,3.254,37.838c-4.509,13.452-10.152,26.545-14.124,40.176
				c-6.457,22.157,3.566,52.332,23.975,64.677c10.476,6.337,16.611,10.483,24.63,20.478c7.602,9.474,16.47,17.182,27.358,22.682
				c18.3,9.245,51.443,19.642,71.365,12.381"/>
			<path style="fill:none;stroke:#F7941D;stroke-opacity:0.5;stroke-width:1.5;stroke-linecap:round;stroke-linejoin:round;stroke-miterlimit:10;" d="
				M-9.987,184.208c15.708-0.962,29.491,0.176,42.072-10.364c10.682-8.949,25.721-21.206,26.301-36.177
				c0.583-15.067-12.316-28.834-11.284-43.381c1.228-17.302,12.141-11.901,21.689-6.978c10.935,5.638,26.77-3.118,15.926-15.086
				c-5.436-5.999-12.957-3.771-19.666-3.687c-8.202,0.104-11.657-1.579-19.08-5.006c-13.408-6.191-20.707-7.028-27.966,6.106
				C10.961,82.379,4.895,85.716-9.987,87.576"/>
			<path style="fill:none;stroke:#F7941D;stroke-opacity:0.5;stroke-width:1.5;stroke-linecap:round;stroke-linejoin:round;stroke-miterlimit:10;" d="
				M146.784-6.486c-1.443,11.771,10.598,22.646,16.653,31.745c6.854,10.3,13.204,17.592,26.784,15.248
				c12.744-2.2,22.587-14.042,35.691-13.768c14.086,0.294,11.096,13.088,21.578,19.367c12.121,7.26,19.518-4.185,29.65-9.633
				c12.928-6.952,26.148,2.262,40.281,1.665c26.387-1.115,55.071-12.415,52.44-44.623"/>
			<path style="fill:none;stroke:#F7941D;stroke-opacity:0.5;stroke-width:1.5;stroke-linecap:round;stroke-linejoin:round;stroke-miterlimit:10;" d="
				M539.994,505.972c12.806-9.961,19.558-15.785,26.226-30.322c6.087-13.27,10.948-11.003,23.633-14.295
				c11.471-2.977,16.823-14.215,7.221-22.756c-11.004-9.787-26.184-2.381-38.416-5.611c-12.819-3.385-14.872-23.1-30.592-19.853
				c-14.417,2.978-12.104,16.217-3.674,24.612c3.858,3.842,12.283,7.166,13.129,13.329c0.742,5.398-7.949,13.082-10.026,17.857
				c-3.066,7.049-3.018,14.666-6.959,21.371c-3.386,5.759-8.894,10.807-12.925,16.181"/>
			<path style="fill:none;stroke:#F7941D;stroke-opacity:0.5;stroke-width:1.5;stroke-linecap:round;stroke-linejoin:round;stroke-miterlimit:10;" d="
				M-9.987,469.992c13.016,1.627,23.241,4.693,33.149-5.556c8.374-8.662,9.569-20.084,9.644-31.473
				c0.156-23.573-18.463-46.282-42.793-49.324"/>
			<path style="fill:none;stroke:#F7941D;stroke-opacity:0.5;stroke-width:1.5;stroke-linecap:round;stroke-linejoin:round;stroke-miterlimit:10;" d="
				M-7.417-6.486c5.35,19.794,9.618,34.378,33.224,31.942C45.491,23.425,56.607,7.732,69.17-5.972"/>
			<path style="fill:none;stroke:#F7941D;stroke-opacity:0.5;stroke-width:1.5;stroke-linecap:round;stroke-linejoin:round;stroke-miterlimit:10;" d="
				M242.388,506.486c2.339-10.527,5.275-19.732-1.536-29.358c-7.204-10.182-12.713-4.689-22.053,0.184
				c-14.37,7.496-24.091,12.734-16.503,29.175"/>
			<path style="fill:none;stroke:#F7941D;stroke-opacity:0.5;stroke-width:1.5;stroke-linecap:round;stroke-linejoin:round;stroke-miterlimit:10;" d="
				M292.302,201.278c-10.946-0.36-24.487,5.656-32.93,7.982c-16.36,4.506-33.285,8.98-50.396,8.465
				c-9.055-0.273-25.242-3.103-30.444,6.475c-3.964,7.297-0.93,24.147,1.613,32.048c7.902,24.557,24.869,51.593,39.522,72.588
				c15.523,22.241,49.909,25.868,73.604,36.308c11.979,5.278,20.651,9.363,30.816-1.569c6.811-7.325,10.011-17.209,19.322-22.097
				c9.322-4.894,20.9-6.089,21.8-19.391c0.889-13.142-13.121-19.969-24.591-18.327c-11.103,1.589-15.442,10.877-23.512-0.354
				c-6.907-9.612-10.485-30.8-11.032-42.815c-0.615-13.51,4.591-26.677,3.703-40.23c-0.391-5.975-2.136-11.999-7.078-15.786
				C299.801,202.352,296.218,201.407,292.302,201.278z"/>
			<path style="fill:none;stroke:#F7941D;stroke-opacity:0.5;stroke-width:1.5;stroke-linecap:round;stroke-linejoin:round;stroke-miterlimit:10;" d="
				M335.441,92.938c-3.072,0.285-6.063,0.811-9.132,1.347c-5.577,0.975-11.151,2.022-16.625,3.483
				c-10.164,2.713-19.777,7.061-27.909,13.821c-11.465,9.532-35.268,15.147-36.973,32.499c-0.811,8.262,2.48,13.943,10.721,14.552
				c4.939,0.365,10.043-2.36,15.178-2.292c5.056,0.067,9.447,1.759,14.353,2.141c11.724,0.915,23.755,0.385,35.517,0.583
				c9.634,0.162,22.5-2.087,31.62,0.986c14.532,4.896,15.613,37.695,30.688,37.557c9.495-0.087,19.979-33.869,17.621-42.381
				c-2.22-8.014-10.654-10.826-15.595-16.786c-5.835-7.039-6.472-15.056-8.554-23.552c-1.753-7.153-4.602-15.083-11.348-18.96
				c-4.716-2.711-10.313-3.174-15.641-3.256c-3.895-0.06-7.793-0.094-11.685,0.099C336.926,92.815,336.182,92.87,335.441,92.938z"/>
			<path style="fill:none;stroke:#F7941D;stroke-opacity:0.5;stroke-width:1.5;stroke-linecap:round;stroke-linejoin:round;stroke-miterlimit:10;" d="
				M243.033,262.865c-3.656,0.792-5.94,4.29-5.563,8.904c0.554,6.768,6.505,14.332,12.756,16.843
				c2.128,0.855,4.526,1.326,6.668,0.235c13.014-6.627-0.075-22.98-9.565-25.749C245.766,262.642,244.315,262.587,243.033,262.865z"
				/>
			<path style="fill:none;stroke:#F7941D;stroke-opacity:0.5;stroke-width:1.5;stroke-linecap:round;stroke-linejoin:round;stroke-miterlimit:10;" d="
				M646.392,506.486c-3.069-16.91-19.357-7.371-26.214-0.514"/>
		</g>
		<g>
			<path style="fill:none;stroke:#006837;stroke-opacity:0.5;stroke-width:1.5;stroke-linecap:round;stroke-linejoin:round;stroke-miterlimit:10;" d="
				M479.856-6.486c1.294,18.616,10.456,33.636,12.362,51.532c2.075,19.484-7.357,27.895-22.415,37.613
				c-16.949,10.94-20.875,18.351-25.892,37.161c-2.015,7.557-6.762,13.597-8.859,21.063c-3.046,10.846-0.537,22.733,1.125,33.557
				c1.572,10.246,5.693,14.956,9.294,24.115c3.237,8.235,0.192,13.251-0.811,21.639c-1.201,10.047,2.487,18.529,3.965,28.334
				c1.649,10.935-1.79,15.071-6.191,24.907c-5.44,12.157-11.704,35.342,1.763,44.42c14.377,9.692,24.951,1.883,25.359,22.588
				c0.203,10.285,1.073,15.117,7.994,22.903c5.99,6.738,13.477,12.289,19.03,19.419c8.36,10.736,3.255,17.974-3.628,28.165
				c-10.079,14.923-21.115,17.205-38.014,20.926c-21.633,4.763-33.15,12.872-48.19,28.968c-5.75,6.153-9.542,11.425-12.048,19.551
				c-2.13,6.907-1.642,12.543-8.88,16.181c-15.445,7.764-30.123-7.122-31.291-21.626c-1.305-16.201,8.992-26.94-3.751-41.427
				c-2.789-3.171-12.669-12.509-17.995-10.43c-6.793,2.653-5.73,13.902-6.585,19.681c-1.38,9.333-1.828,12.657-11.337,13.882
				c-7.155,0.922-19.496-0.406-26.62-1.35c-18.266-2.421-24.407-18.024-44.804-14.989c-23.295,3.466-37.709,15.609-57.091,27.834
				c-18.251,11.512-33.548,23.017-49.328,37.841"/>
			<path style="fill:none;stroke:#006837;stroke-opacity:0.5;stroke-width:1.5;stroke-linecap:round;stroke-linejoin:round;stroke-miterlimit:10;" d="
				M759.987,350.744c-7.235-1.809-14.068-7.874-21.01-10.875c-8.232-3.559-17.674-4.661-25.677-8.454
				c-14.914-7.069-25.564-26.616-24.593-42.848c0.903-15.096,12.033-30.333,6.394-45.688c-2.933-7.984-10.736-13.513-15.662-20.276
				c-5.844-8.022-10.001-17.03-15.434-25.306c-6.801-10.359-15.098-25.445-29.445-22.81c-6.695,1.23-12.028,6.559-18.659,8.295
				c-8.377,2.193-17.018,0.29-25.501,2.035c-12.548,2.58-28.306,15.239-37.912,2.93c-9.538-12.222-12.713-27.292-28.04-35.09
				c-7.782-3.96-14.993-3.134-23.353-3.437c-9.274-0.337-15.845-3.429-24.316-6.139c-14.512-4.642-33.821,8.59-16.37,20.882
				c12.69,8.938,25.054,0.252,32.275,17.683c2.859,6.902,2.043,13.306,8.124,18.653c6.57,5.777,17.208,7.575,25.693,7.25
				c16.9-0.648,24.328-11.704,30.686,7.665c5.508,16.779,13.907,29.532,29.003,39.108c11.581,7.346,15.373,13.93,11.912,28.216
				c-3.589,14.816-22.827,24.681-21.589,40.22c1.425,17.875,22.549,33.509,29.301,50.082c9.284,22.79,22.522,18.404,41.311,29.817
				c17.754,10.784,31.987,27.274,52.339,32.801c20.211,5.489,40.042,11.095,60.012,17.572"/>
			<path style="fill:none;stroke:#006837;stroke-opacity:0.5;stroke-width:1.5;stroke-linecap:round;stroke-linejoin:round;stroke-miterlimit:10;" d="
				M-9.987,209.908c14.013,2.335,26.02,4.279,39.015,9.855c13.485,5.786,24.734,6.355,38.916,2.401
				c27.392-7.636,54.369-8.514,82.474-9.567c14.011-0.525,13.153,11.847,15.652,24.11c3.192,15.661,8.021,27.438,15.26,41.639
				c6.121,12.007,12.712,23.706,19.409,35.399c6.35,11.087,10.888,26.162,21.772,33.744c22.474,15.655,54.605,13.549,74.99,33.424
				c9.798,9.553,9.078,19.327,2.995,31.46c-5.185,10.342-10.348,11.106-21.196,9.257c-16.038-2.734-25.261-4.03-41.416,0.4
				c-16.886,4.631-32.335,1.08-49.291-1.435c-12.143-1.801-24.423-2.223-34.425-10.119c-10.788-8.518-15.872-22.683-25.76-32.34
				c-10.58-10.332-20.846-15.328-26.481-29.411c-4.782-11.95-7.612-22.81-22.089-24.402c-16.993-1.869-33.922,7.677-50.659,8.991
				C12,334.66,5.641,319.965-9.987,316.82"/>
			<path style="fill:none;stroke:#006837;stroke-opacity:0.5;stroke-width:1.5;stroke-linecap:round;stroke-linejoin:round;stroke-miterlimit:10;" d="
				M542.05-5.972c8.223,13.62,16.837,27.332,15.301,44.027c-0.786,8.538-4.952,15.405-7.629,23.38
				c-2.653,7.905-2.989,15.975-5.044,23.956c-3.415,13.261-17.861,26.278-13.059,40.368c4.603,13.508,21.002,23.562,33.254,28.895
				c11.691,5.089,28.089,7.198,40.707,3.815c14.646-3.927,22.809-20.876,31.953-31.922c9.261-11.187,22.765-19.738,25.441-34.343
				c2.131-11.635,0.266-22.587,13.115-27.031c11.005-3.806,22.778-0.781,20.151,12.635c-2.73,13.942-21.606,15.571-23.356,28.918
				c-0.842,6.421,4.125,16.049,5.276,22.514c1.444,8.113,1.94,16.317,2.913,24.485c1.661,13.945,3.203,29.671,15.121,38.7
				c14.082,10.668,19.605,6.797,17.463,26.669c-1.82,16.887,3.835,31.117-1.002,47.857c-4.686,16.219-11.35,30.242,2.982,43.743
				c11.426,10.763,29.87,13.719,44.351,18.463"/>
			<path style="fill:none;stroke:#006837;stroke-opacity:0.5;stroke-width:1.5;stroke-linecap:round;stroke-linejoin:round;stroke-miterlimit:10;" d="
				M387.336-6.486c-4.832,14.497-9.633,27.368-20.03,39.075c-9.818,11.054-25.099,12.65-39.093,15.34
				c-13.288,2.554-29.179,0.353-41.715,5.244c-12.933,5.046-20.732,21.91-34.402,24.834c-12.907,2.76-24.525-12.982-33.267-20.224
				c-14.58-12.078-27.979-6.107-45.833-7.303c-12.486-0.836-14.906-5.558-23.519,2.749c-10.321,9.954-23.208,13.627-33.559,23.011
				c-10.867,9.852-15.292,22.812-28.764,30.308c-7.849,4.368-14.801,5.406-17.405,14.873c-2.207,8.024,2.576,30.258,7.977,36.499
				c7.143,8.255,22.242,8.999,31.529,14.263c8.218,4.658,30.443,21.33,10.801,26.387c-11.168,2.876-25.973-2.823-38.073-1.113
				c-15.631,2.209-29.304-2.855-45.133-2.955c-15.441-0.098-31.455-1.633-46.839-3.098"/>
			<path style="fill:none;stroke:#006837;stroke-opacity:0.5;stroke-width:1.5;stroke-linecap:round;stroke-linejoin:round;stroke-miterlimit:10;" d="
				M-9.987,486.44c25.066,2.571,39.68,6.418,56.505-15.021c7.907-10.075,15.273-21.61,25.078-29.977
				c7.077-6.039,15.473-9.215,21.73-16.168c-6.047-4.535-13.124-5.706-19.036-10.263c-6.361-4.903-12.253-13.202-17.008-19.707
				c-13.678-18.715,7.044-23.119,16.858-38.046c15.832-24.078-24.471-5.986-32.633,1.267c-8.162,7.253-10.509,9.051-21.139,5.523
				c-10.236-3.398-19.474-6.793-30.356-8.165"/>
			<path style="fill:none;stroke:#006837;stroke-opacity:0.5;stroke-width:1.5;stroke-linecap:round;stroke-linejoin:round;stroke-miterlimit:10;" d="
				M759.987,489.524c-12.485,1.086-18.52,1.706-25.011-9.27c-6.033-10.2-7.581-17.342-19.524-22.104
				c-10.757-4.289-22.887-2.967-33.34-8.201c-10.942-5.479-18.089-16.707-29.473-21.457c-9.755-4.07-22.004-3.63-29.165,5.464
				c-6.622,8.409-5.014,20.444-12.096,28.953c-6.628,7.964-16.279,8.321-24.591,13.289c-10.207,6.101-16.217,20.418-23.147,29.774"
				/>
			<path style="fill:none;stroke:#006837;stroke-opacity:0.5;stroke-width:1.5;stroke-linecap:round;stroke-linejoin:round;stroke-miterlimit:10;" d="
				M104.635-6.486c-4.127,10.334-14.967,15.712-23.664,21.56c-10.618,7.14-21.035,17.348-32.908,22.069
				c-9.984,3.97-21.082,3.101-31.296,6.412C5.639,47.162-1.339,53.228-9.473,61.362"/>
			<path style="fill:none;stroke:#006837;stroke-opacity:0.5;stroke-width:1.5;stroke-linecap:round;stroke-linejoin:round;stroke-miterlimit:10;" d="
				M174.54-6.486c0.495,10.396-1.996,38.687,15.839,34.593c11.257-2.585,31.829-23.002,32.477-34.593"/>
			<path style="fill:none;stroke:#006837;stroke-opacity:0.5;stroke-width:1.5;stroke-linecap:round;stroke-linejoin:round;stroke-miterlimit:10;" d="
				M289.676-6.486c5.426,5.14,10.549,8.579,16.486,12.923c6.207,4.542,10.409,11.699,17.832,14.288
				c4.783,1.668,13.508,2.246,16.83-2.631c4.432-6.506-7.258-19.033-10.541-24.067"/>
			<path style="fill:none;stroke:#006837;stroke-opacity:0.5;stroke-width:1.5;stroke-linecap:round;stroke-linejoin:round;stroke-miterlimit:10;" d="
				M362.145,80.764c-2.644-0.047-5.244,0.323-7.883,0.567c-2.826,0.262-5.669,0.435-8.502,0.645
				c-6.396,0.474-12.799,0.851-19.183,1.471c-10.967,1.064-22.08,2.814-32.245,7.252c-4.178,1.824-8.158,4.106-11.776,6.884
				c-12.111,9.3-18.975,10.455-33.461,13.74c-14.479,3.283-19.758,10.225-34.506,3.139c-10.82-5.198-21.893-11.55-32.284-1.397
				c-7.77,7.593-11.799,24.029-17.023,33.617c-7.746,14.216-0.307,16.84,9.492,27.007c8.232,8.542,12.116,20.776,23.407,26.063
				c25.04,11.727,42.81-15.137,65.777-18.822c24.449-3.923,54.948-19.052,80.142-12.94c25.058,6.079,11.863,40.737,9.766,57.592
				c-2.105,16.925,2.493,14.004,16.458,9.331c10.588-3.543,24.505-1.048,31.375-11.527c8.057-12.291,3.674-32.849,6.265-47.059
				c2.913-15.975,3.758-26.174-7.035-39.4c-10.726-13.144-12.693-19.579-15.828-36.361c-0.76-4.072-1.939-8.288-4.524-11.61
				c-2.158-2.773-5.184-4.546-8.422-5.793c-2.844-1.095-5.691-2.124-8.759-2.344C362.978,80.788,362.561,80.771,362.145,80.764z"/>
			<path style="fill:none;stroke:#006837;stroke-opacity:0.5;stroke-width:1.5;stroke-linecap:round;stroke-linejoin:round;stroke-miterlimit:10;" d="
				M732.745-6.486c0,9.011-1.072,18.808,1.292,27.553c2.949,10.906,4.407,10.258,0.855,21.881
				c-6.909,22.611,4.323,27.192,25.094,28.18"/>
			<path style="fill:none;stroke:#006837;stroke-opacity:0.5;stroke-width:1.5;stroke-linecap:round;stroke-linejoin:round;stroke-miterlimit:10;" d="
				M759.987,217.104c-21.555,4.362-21.152,15.087-20.087,34.952c1.077,20.094,2.337,30.662,20.087,42.148"/>
			<path style="fill:none;stroke:#006837;stroke-opacity:0.5;stroke-width:1.5;stroke-linecap:round;stroke-linejoin:round;stroke-miterlimit:10;" d="
				M467.52,506.486c0-12.885,0.025-28.941-17.92-21.883c-7.626,3-13.566,10.637-21.216,14.043
				c-6.143,2.736-12.013,3.951-17.919,7.326"/>
			<path style="fill:none;stroke:#006837;stroke-opacity:0.5;stroke-width:1.5;stroke-linecap:round;stroke-linejoin:round;stroke-miterlimit:10;" d="
				M321.544,506.486c-1.059-14.367-14.238-22.697-27.173-19.027c-12.225,3.469-16.1,6.872-12.919,19.027"/>
			<path style="fill:none;stroke:#006837;stroke-opacity:0.5;stroke-width:1.5;stroke-linecap:round;stroke-linejoin:round;stroke-miterlimit:10;" d="
				M4.544,109.168c-6.395,0.509-11.916,3.816-13.165,11.761c-0.875,5.566,0.526,11.587,0.96,17.14
				c0.868,11.094,1.846,17.776,14.626,15.273c10.805-2.116,26.428-8.853,25.718-21.326c-0.417-7.33-3.771-13.813-9.905-17.934
				C18.032,110.894,10.862,108.665,4.544,109.168z"/>
			<path style="fill:none;stroke:#006837;stroke-opacity:0.5;stroke-width:1.5;stroke-linecap:round;stroke-linejoin:round;stroke-miterlimit:10;" d="
				M263.462,232.524c-24.447,1.482-57.841-0.18-52.456,33.622c4.005,25.141,17.872,55.345,44.23,60.967
				c11.504,2.454,23.557,5.203,30.906-6.199c6.761-10.489,5.681-27.965,3.882-39.538c-1.86-11.962-3.994-24.823-6.481-36.517
				c-2.409-11.329-8.806-11.139-19.568-12.335"/>
			<path style="fill:none;stroke:#006837;stroke-opacity:0.5;stroke-width:1.5;stroke-linecap:round;stroke-linejoin:round;stroke-miterlimit:10;" d="
				M107.205,236.636c-14.466,2.611-29.026,18.934-30.894,33.632c-2.895,22.776,27.832,20.495,41.684,18.728
				c17.319-2.209,30.614-4.783,25.322-25.077c-5.385-20.65-15.184-27.282-35.597-27.282"/>
			<path style="fill:none;stroke:#006837;stroke-opacity:0.5;stroke-width:1.5;stroke-linecap:round;stroke-linejoin:round;stroke-miterlimit:10;" d="
				M385.964,347.836c-9.889,1.646-18.504,8.529-22.78,17.621c-4.303,9.148,1.113,10.693,8.161,17.214
				c7.053,6.525,11.763,15.915,21.5,18.19c8.172,1.909,20.386,1.12,28.832,0.931c8.4-0.189,17.781-2.505,23.411-9.337
				c7.013-8.512,2.905-15.486-2.306-24.604c-5.38-9.413-15.573-14.076-25.685-16.601c-9.162-2.288-19.023-4.392-28.521-3.723
				C387.696,347.589,386.825,347.693,385.964,347.836z"/>
			<path style="fill:none;stroke:#006837;stroke-opacity:0.5;stroke-width:1.5;stroke-linecap:round;stroke-linejoin:round;stroke-miterlimit:10;" d="
				M675.764,351.084c-4.305,1.134-7.637,4.718-8.818,9.058c-2.415,8.875,2.771,18.837,7.423,26.076
				c1.759,2.737,3.69,5.372,5.806,7.845c11.715,13.688,41.387,26.988,59.845,23.248c18.378-3.724,5.37-35.157-2.83-44.455
				c-4.975-5.64-12.055-8.538-19.094-10.669c-8.17-2.473-16.306-4.928-24.392-7.678c-5.225-1.777-10.662-4.37-16.326-3.728
				C676.827,350.844,676.288,350.946,675.764,351.084z"/>
		</g>
	</g>
</g>
</svg>
